<?xml version="1.0" encoding="utf-8"?>
<!-- Generator: Adobe Illustrator 18.1.0, SVG Export Plug-In . SVG Version: 6.00 Build 0)  -->
<!DOCTYPE svg PUBLIC "-//W3C//DTD SVG 1.1//EN" "http://www.w3.org/Graphics/SVG/1.1/DTD/svg11.dtd">
<svg version="1.1" id="Layer_1" xmlns="http://www.w3.org/2000/svg" xmlns:xlink="http://www.w3.org/1999/xlink" x="0px" y="0px"
	 width="24px" height="24px" viewBox="-287 289 24 24" enable-background="new -287 289 24 24" xml:space="preserve">
<g id="Layer_1_1_">
	<g>
		<path fill="#F5F5F5" d="M-275,310c-5,0-9-4-9-9s4-9,9-9s9,4,9,9S-270,310-275,310z M-275,294c-3.9,0-7,3.1-7,7s3.1,7,7,7
			s7-3.1,7-7S-271.1,294-275,294z"/>
	</g>
	<g>
		<g>
			<path fill="#F5F5F5" d="M-273.4,301.6c0.2,0,0.3,0.1,0.4,0.3c0.1,0.2,0.2,0.4,0.2,0.6c0,0.2-0.1,0.5-0.2,0.6
				c-0.1,0.2-0.3,0.3-0.4,0.3c-0.2,0-0.3-0.1-0.5-0.3c-0.1-0.2-0.2-0.4-0.2-0.6c0-0.2,0.1-0.5,0.2-0.6
				C-273.8,301.7-273.6,301.6-273.4,301.6 M-271.2,299.3c0.5,0.5,0.7,1.2,0.7,1.9c0,0.5-0.1,0.9-0.2,1.3c-0.1,0.4-0.3,0.7-0.4,0.9
				c-0.2,0.2-0.4,0.5-0.6,0.6c-0.2,0.2-0.5,0.3-0.7,0.4c-0.2,0.1-0.4,0.2-0.7,0.2c-0.3,0-0.5,0.1-0.6,0.1c-0.1,0-0.3,0-0.4,0
				c0,0-0.2,0-0.4,0c-0.2,0-0.4,0-0.5,0s-0.3,0-0.5,0c-0.2,0-0.3,0-0.4,0c-0.2,0-0.3,0-0.4,0c-0.1,0-0.3,0-0.6-0.1
				c-0.3,0-0.5-0.1-0.7-0.2c-0.2-0.1-0.4-0.2-0.7-0.4c-0.2-0.2-0.5-0.4-0.6-0.6c-0.2-0.2-0.3-0.6-0.4-0.9c-0.1-0.4-0.2-0.8-0.2-1.3
				c0-0.7,0.2-1.4,0.7-1.9c-0.1,0-0.1-0.3,0-0.8c0-0.5,0.1-1,0.3-1.4c0.6,0.1,1.3,0.4,2.2,1c0.3-0.1,0.7-0.1,1.2-0.1
				c0.5,0,1,0,1.2,0.1c0.4-0.3,0.8-0.5,1.2-0.7c0.4-0.2,0.6-0.3,0.8-0.3l0.3-0.1c0.2,0.4,0.3,0.9,0.3,1.4
				C-271.2,299.1-271.2,299.3-271.2,299.3 M-275,304.4c1.1,0,1.9-0.1,2.5-0.4c0.6-0.3,0.8-0.8,0.8-1.6c0-0.5-0.2-0.9-0.5-1.2
				c-0.2-0.2-0.4-0.3-0.6-0.3c-0.2,0-0.6,0-1.1,0c-0.5,0-0.8,0.1-1,0.1c-0.2,0-0.5,0-0.9,0c-0.3,0-0.6,0-0.8,0c-0.2,0-0.4,0-0.6,0.1
				c-0.2,0.1-0.4,0.1-0.5,0.3c-0.3,0.3-0.5,0.7-0.5,1.2c0,0.8,0.3,1.3,0.8,1.6C-276.9,304.2-276.1,304.4-275,304.4 M-276.5,301.6
				c0.2,0,0.3,0.1,0.4,0.3c0.1,0.2,0.2,0.4,0.2,0.6c0,0.2-0.1,0.5-0.2,0.6c-0.1,0.2-0.3,0.3-0.4,0.3c-0.2,0-0.3-0.1-0.5-0.3
				c-0.1-0.2-0.2-0.4-0.2-0.6c0-0.2,0.1-0.5,0.2-0.6C-276.9,301.7-276.7,301.6-276.5,301.6"/>
		</g>
	</g>
</g>
</svg>
